<?xml version="1.0" encoding="UTF-8"?>
<!DOCTYPE svg PUBLIC "-//W3C//DTD SVG 1.1//EN" "http://www.w3.org/Graphics/SVG/1.1/DTD/svg11.dtd">
<svg xmlns="http://www.w3.org/2000/svg" version="1.1" width="500px" height="500px" style="shape-rendering:geometricPrecision; text-rendering:geometricPrecision; image-rendering:optimizeQuality; fill-rule:evenodd; clip-rule:evenodd" xmlns:xlink="http://www.w3.org/1999/xlink">
<g><path style="opacity:0.821" fill="#e7bbf3" d="M 264.5,204.5 C 256.167,204.5 247.833,204.5 239.5,204.5C 247.819,202.031 256.152,202.031 264.5,204.5 Z"/></g>
<g><path style="opacity:0.997" fill="#cf78e8" d="M 239.5,204.5 C 247.833,204.5 256.167,204.5 264.5,204.5C 279.367,205.455 293.367,209.455 306.5,216.5C 305.081,217.451 303.415,217.784 301.5,217.5C 286.152,217.569 270.818,217.736 255.5,218C 249.049,214.707 243.716,210.207 239.5,204.5 Z"/></g>
<g><path style="opacity:0.997" fill="#d079e8" d="M 245.5,217.5 C 245.557,218.609 245.89,219.609 246.5,220.5C 236.23,221.07 225.73,221.736 215,222.5C 212.375,220.575 210.208,218.242 208.5,215.5C 208.5,214.833 208.167,214.5 207.5,214.5C 207.5,213.833 207.167,213.5 206.5,213.5C 206.586,212.504 206.252,211.671 205.5,211C 213.582,206.481 222.249,204.815 231.5,206C 237.858,207.866 242.525,211.699 245.5,217.5 Z"/></g>
<g><path style="opacity:0.573" fill="#eecff7" d="M 197.5,211.5 C 197.158,210.662 196.492,210.328 195.5,210.5C 203.372,205.406 212.039,202.906 221.5,203C 212.908,204.363 204.908,207.196 197.5,211.5 Z"/></g>
<g><path style="opacity:0.997" fill="#d07be8" d="M 206.5,213.5 C 207.167,213.5 207.5,213.833 207.5,214.5C 208.167,214.5 208.5,214.833 208.5,215.5C 208.833,216.833 209.167,218.167 209.5,219.5C 205.768,221.131 201.768,222.131 197.5,222.5C 196.167,222.5 194.833,222.5 193.5,222.5C 192.127,222.657 190.793,222.49 189.5,222C 190.823,221.184 191.489,220.017 191.5,218.5C 194.256,215.611 197.589,213.444 201.5,212C 203.495,211.387 205.162,211.887 206.5,213.5 Z"/></g>
<g><path style="opacity:0.486" fill="#eac4f5" d="M 306.5,216.5 C 308.113,217.692 309.78,218.692 311.5,219.5C 302.167,219.5 292.833,219.5 283.5,219.5C 289.5,218.833 295.5,218.167 301.5,217.5C 303.415,217.784 305.081,217.451 306.5,216.5 Z"/></g>
<g><path style="opacity:0.659" fill="#edcaf6" d="M 191.5,218.5 C 191.489,220.017 190.823,221.184 189.5,222C 190.793,222.49 192.127,222.657 193.5,222.5C 186.367,224.526 185.701,223.193 191.5,218.5 Z"/></g>
<g><path style="opacity:0.278" fill="#eecff6" d="M 245.5,217.5 C 247.382,218.221 247.715,219.221 246.5,220.5C 245.89,219.609 245.557,218.609 245.5,217.5 Z"/></g>
<g><path style="opacity:0.992" fill="#d587ea" d="M 283.5,219.5 C 292.833,219.5 302.167,219.5 311.5,219.5C 325.8,219.733 339.8,221.733 353.5,225.5C 350.375,226.479 347.042,226.813 343.5,226.5C 341.473,226.338 339.473,226.505 337.5,227C 338.448,227.483 339.448,227.649 340.5,227.5C 338.735,228.461 336.735,228.795 334.5,228.5C 333.923,227.227 333.257,227.227 332.5,228.5C 332.942,229.739 333.609,230.739 334.5,231.5C 335.167,231.5 335.5,231.833 335.5,232.5C 334.167,232.833 334.167,233.167 335.5,233.5C 336.167,233.5 336.5,233.833 336.5,234.5C 335.833,234.5 335.5,234.833 335.5,235.5C 335.5,236.167 335.167,236.5 334.5,236.5C 332.833,235.167 331.167,233.833 329.5,232.5C 329.5,231.833 329.167,231.5 328.5,231.5C 326.733,229.11 324.4,227.443 321.5,226.5C 303.374,222.776 285.04,220.609 266.5,220C 271.75,219.807 276.917,219.307 282,218.5C 282.383,219.056 282.883,219.389 283.5,219.5 Z"/></g>
<g><path style="opacity:0.8" fill="#e4aff1" d="M 195.5,210.5 C 196.492,210.328 197.158,210.662 197.5,211.5C 190.167,217.167 182.833,222.833 175.5,228.5C 174.508,228.672 173.842,228.338 173.5,227.5C 180.809,221.864 188.143,216.198 195.5,210.5 Z"/></g>
<g><path style="opacity:0.504" fill="#e4b3f1" d="M 209.5,219.5 C 210.404,220.209 210.737,221.209 210.5,222.5C 206.167,222.5 201.833,222.5 197.5,222.5C 201.768,222.131 205.768,221.131 209.5,219.5 Z"/></g>
<g><path style="opacity:0.682" fill="#edcaf6" d="M 353.5,225.5 C 356.331,226.079 358.664,227.412 360.5,229.5C 354.93,228.103 349.264,227.437 343.5,227.5C 343.5,227.167 343.5,226.833 343.5,226.5C 347.042,226.813 350.375,226.479 353.5,225.5 Z"/></g>
<g><path style="opacity:0.998" fill="#d27ee9" d="M 305.5,227.5 C 309.696,229.032 312.029,232.032 312.5,236.5C 309.833,236.5 307.167,236.5 304.5,236.5C 300.327,234.989 298.994,232.155 300.5,228C 302.244,226.546 303.911,226.379 305.5,227.5 Z"/></g>
<g><path style="opacity:0.996" fill="#d17ce8" d="M 320.5,227.5 C 323.354,228.794 326.021,230.461 328.5,232.5C 328.833,232.5 329.167,232.5 329.5,232.5C 329.5,233.833 329.5,235.167 329.5,236.5C 328.732,235.737 328.232,234.737 328,233.5C 327.648,235.247 327.148,236.914 326.5,238.5C 321.174,239.924 317.507,237.924 315.5,232.5C 315.5,231.167 315.5,229.833 315.5,228.5C 316.919,227.549 318.585,227.216 320.5,227.5 Z"/></g>
<g><path style="opacity:0.993" fill="#cd71e7" d="M 340.5,227.5 C 341.5,227.5 342.5,227.5 343.5,227.5C 349.264,227.437 354.93,228.103 360.5,229.5C 361.11,231.434 362.11,233.101 363.5,234.5C 363.674,236.861 364.007,239.194 364.5,241.5C 362.527,242.163 360.361,242.496 358,242.5C 352.162,242.06 346.328,241.56 340.5,241C 339.956,240.283 339.289,239.783 338.5,239.5C 338.672,238.508 338.338,237.842 337.5,237.5C 337.5,237.167 337.5,236.833 337.5,236.5C 337.5,235.833 337.167,235.5 336.5,235.5C 336.5,235.167 336.5,234.833 336.5,234.5C 336.5,233.833 336.167,233.5 335.5,233.5C 335.5,233.167 335.5,232.833 335.5,232.5C 335.5,231.833 335.167,231.5 334.5,231.5C 334.5,230.5 334.5,229.5 334.5,228.5C 336.735,228.795 338.735,228.461 340.5,227.5 Z"/></g>
<g><path style="opacity:0.231" fill="#f2dbf8" d="M 321.5,226.5 C 324.4,227.443 326.733,229.11 328.5,231.5C 328.5,231.833 328.5,232.167 328.5,232.5C 326.021,230.461 323.354,228.794 320.5,227.5C 321.167,227.5 321.5,227.167 321.5,226.5 Z"/></g>
<g><path style="opacity:0.62" fill="#e8bff4" d="M 305.5,227.5 C 309.355,226.845 312.188,228.179 314,231.5C 314.232,230.263 314.732,229.263 315.5,228.5C 315.5,229.833 315.5,231.167 315.5,232.5C 314.766,233.878 314.099,235.378 313.5,237C 310.304,237.805 307.304,237.638 304.5,236.5C 307.167,236.5 309.833,236.5 312.5,236.5C 312.029,232.032 309.696,229.032 305.5,227.5 Z"/></g>
<g><path style="opacity:0.318" fill="#ebc6f5" d="M 360.5,229.5 C 361.872,230.512 363.205,231.512 364.5,232.5C 363.662,232.842 363.328,233.508 363.5,234.5C 362.11,233.101 361.11,231.434 360.5,229.5 Z"/></g>
<g><path style="opacity:0.3" fill="#f1d8f8" d="M 329.5,236.5 C 329.027,237.906 328.027,238.573 326.5,238.5C 327.148,236.914 327.648,235.247 328,233.5C 328.232,234.737 328.732,235.737 329.5,236.5 Z"/></g>
<g><path style="opacity:0.984" fill="#d484ea" d="M 364.5,232.5 C 366.262,233.262 367.262,234.596 367.5,236.5C 367.719,237.675 367.386,238.675 366.5,239.5C 365.675,237.64 364.675,235.974 363.5,234.5C 363.328,233.508 363.662,232.842 364.5,232.5 Z"/></g>
<g><path style="opacity:0.988" fill="#e2abf0" d="M 281.5,240.5 C 280.075,238.969 279.409,239.302 279.5,241.5C 276.862,238.379 273.528,236.212 269.5,235C 273.12,234.159 276.454,234.826 279.5,237C 280.823,237.816 281.489,238.983 281.5,240.5 Z"/></g>
<g><path style="opacity:0.655" fill="#edcbf6" d="M 335.5,235.5 C 335.833,235.5 336.167,235.5 336.5,235.5C 337.167,235.5 337.5,235.833 337.5,236.5C 336.167,236.833 336.167,237.167 337.5,237.5C 337.328,238.492 337.662,239.158 338.5,239.5C 338.631,240.239 338.464,240.906 338,241.5C 336.331,240.154 335.164,238.487 334.5,236.5C 335.167,236.5 335.5,236.167 335.5,235.5 Z"/></g>
<g><path style="opacity:0.471" fill="#f1d7f8" d="M 173.5,227.5 C 173.842,228.338 174.508,228.672 175.5,228.5C 161.492,236.839 146.492,242.839 130.5,246.5C 136.885,243.534 143.552,241.034 150.5,239C 158.22,235.14 165.886,231.307 173.5,227.5 Z"/></g>
<g><path style="opacity:0.987" fill="#d381e9" d="M 281.5,240.5 C 283.117,242.121 284.284,244.121 285,246.5C 285.499,250.486 285.666,254.486 285.5,258.5C 284.566,259.568 284.232,260.901 284.5,262.5C 284.5,262.833 284.5,263.167 284.5,263.5C 282.902,266.495 280.902,269.329 278.5,272C 276.956,273.187 275.289,273.52 273.5,273C 275.751,272.252 277.084,270.752 277.5,268.5C 281.743,259.788 282.41,250.788 279.5,241.5C 279.409,239.302 280.075,238.969 281.5,240.5 Z"/></g>
<g><path style="opacity:0.137" fill="#efd2f7" d="M 363.5,234.5 C 364.675,235.974 365.675,237.64 366.5,239.5C 367.386,238.675 367.719,237.675 367.5,236.5C 368.788,238.035 368.788,239.701 367.5,241.5C 366.473,240.209 365.473,240.209 364.5,241.5C 364.007,239.194 363.674,236.861 363.5,234.5 Z"/></g>
<g><path style="opacity:0.008" fill="#fbf6fc" d="M 189.5,242.5 C 188.833,241.167 188.833,241.167 189.5,242.5 Z"/></g>
<g><path style="opacity:0.008" fill="#fbf6fc" d="M 130.5,246.5 C 129.833,247.167 129.833,247.167 130.5,246.5 Z"/></g>
<g><path style="opacity:0.98" fill="#d486ea" d="M 189.5,242.5 C 191.549,245.55 194.216,247.883 197.5,249.5C 206.321,250.551 215.321,251.217 224.5,251.5C 227.167,251.5 229.833,251.5 232.5,251.5C 230.393,252.468 228.059,252.802 225.5,252.5C 214.828,252.667 204.161,252.5 193.5,252C 191.098,249.297 189.765,246.13 189.5,242.5 Z"/></g>
<g><path style="opacity:0.006" fill="#f7e8fb" d="M 197.5,249.5 C 204.841,249.334 212.174,249.5 219.5,250C 221.382,250.198 223.048,250.698 224.5,251.5C 215.321,251.217 206.321,250.551 197.5,249.5 Z"/></g>
<g><path style="opacity:0.982" fill="#d68aeb" d="M 219.5,255.5 C 211.833,256.833 204.167,256.833 196.5,255.5C 204.147,254.369 211.814,254.369 219.5,255.5 Z"/></g>
<g><path style="opacity:0.334" fill="#f4e2fa" d="M 232.5,251.5 C 238.425,251.626 244.092,252.126 249.5,253C 247.122,253.511 244.788,254.178 242.5,255C 246.852,255.419 247.185,256.086 243.5,257C 240.183,257.498 236.85,257.665 233.5,257.5C 233.611,256.883 233.944,256.383 234.5,256C 232.527,255.505 230.527,255.338 228.5,255.5C 230.969,254.683 233.635,254.183 236.5,254C 232.644,253.823 228.977,253.323 225.5,252.5C 228.059,252.802 230.393,252.468 232.5,251.5 Z"/></g>
<g><path style="opacity:0.551" fill="#e6b9f3" d="M 228.5,255.5 C 230.527,255.338 232.527,255.505 234.5,256C 233.944,256.383 233.611,256.883 233.5,257.5C 219.163,257.667 204.829,257.5 190.5,257C 192.345,255.872 194.345,255.372 196.5,255.5C 204.167,256.833 211.833,256.833 219.5,255.5C 222.607,254.924 225.607,254.924 228.5,255.5 Z"/></g>
<g><path style="opacity:0.993" fill="#d280e9" d="M 308.5,256.5 C 308.5,258.5 309.5,259.5 311.5,259.5C 329.075,261.749 346.742,262.082 364.5,260.5C 367.01,260.946 369.01,260.28 370.5,258.5C 372.596,257.396 373.596,258.23 373.5,261C 373.561,262.711 372.894,264.044 371.5,265C 357.781,267.29 343.948,268.457 330,268.5C 316.82,268.009 303.653,267.342 290.5,266.5C 290.5,262.833 290.5,259.167 290.5,255.5C 296.591,255.211 302.591,255.545 308.5,256.5 Z"/></g>
<g><path style="opacity:0.631" fill="#efcff7" d="M 308.5,256.5 C 309.833,257.167 310.833,258.167 311.5,259.5C 309.5,259.5 308.5,258.5 308.5,256.5 Z"/></g>
<g><path style="opacity:0.816" fill="#ebc4f5" d="M 370.5,258.5 C 369.01,260.28 367.01,260.946 364.5,260.5C 366.302,259.542 368.302,258.875 370.5,258.5 Z"/></g>
<g><path style="opacity:0.525" fill="#eac2f4" d="M 285.5,258.5 C 285.81,259.738 286.31,259.738 287,258.5C 287.333,261.5 287.667,264.5 288,267.5C 289.734,268.249 291.567,268.749 293.5,269C 292.934,269.995 292.267,270.828 291.5,271.5C 290.526,269.915 289.026,268.915 287,268.5C 286.802,266.618 286.302,264.952 285.5,263.5C 285.5,262.833 285.167,262.5 284.5,262.5C 284.232,260.901 284.566,259.568 285.5,258.5 Z"/></g>
<g><path style="opacity:0.722" fill="#ecc8f5" d="M 192.5,263.5 C 190.265,263.205 188.265,263.539 186.5,264.5C 179.759,263.824 173.093,262.657 166.5,261C 171.74,260.874 176.907,261.374 182,262.5C 185.698,261.258 189.198,261.592 192.5,263.5 Z"/></g>
<g><path style="opacity:0.993" fill="#ce74e7" d="M 285.5,263.5 C 286.302,264.952 286.802,266.618 287,268.5C 289.026,268.915 290.526,269.915 291.5,271.5C 290.101,272.89 288.434,273.89 286.5,274.5C 283.482,274.665 280.482,274.498 277.5,274C 281.879,271.789 284.546,268.289 285.5,263.5 Z"/></g>
<g><path style="opacity:0.978" fill="#d68beb" d="M 186.5,264.5 C 188.265,263.539 190.265,263.205 192.5,263.5C 201.208,263.672 209.875,264.339 218.5,265.5C 223.651,266.327 228.984,266.827 234.5,267C 225.84,267.5 217.173,267.666 208.5,267.5C 201.102,266.872 193.769,265.872 186.5,264.5 Z"/></g>
<g><path style="opacity:0.315" fill="#f4dff9" d="M 218.5,265.5 C 228.616,265.183 238.616,266.016 248.5,268C 234.994,268.827 221.66,268.66 208.5,267.5C 217.173,267.666 225.84,267.5 234.5,267C 228.984,266.827 223.651,266.327 218.5,265.5 Z"/></g>
<g><path style="opacity:0.482" fill="#e6b9f3" d="M 347.5,269.5 C 341.5,270.167 335.5,270.833 329.5,271.5C 328.711,271.217 328.044,270.717 327.5,270C 334.158,269.5 340.825,269.334 347.5,269.5 Z"/></g>
<g><path style="opacity:0.998" fill="#d17ee9" d="M 347.5,269.5 C 359.974,269.015 359.974,271.182 347.5,276C 340.561,277.676 334.561,276.176 329.5,271.5C 335.5,270.833 341.5,270.167 347.5,269.5 Z"/></g>
<g><path style="opacity:0.644" fill="#edcaf6" d="M 284.5,263.5 C 284.833,263.5 285.167,263.5 285.5,263.5C 284.546,268.289 281.879,271.789 277.5,274C 280.482,274.498 283.482,274.665 286.5,274.5C 280.943,275.811 275.277,275.644 269.5,274C 272.369,272.404 275.036,270.57 277.5,268.5C 277.084,270.752 275.751,272.252 273.5,273C 275.289,273.52 276.956,273.187 278.5,272C 280.902,269.329 282.902,266.495 284.5,263.5 Z"/></g>
<g><path style="opacity:0.286" fill="#9a9a9a" d="M 152.5,297.5 C 158.014,296.833 163.681,296.167 169.5,295.5C 162.866,294.503 156.2,294.17 149.5,294.5C 149.5,305.167 149.5,315.833 149.5,326.5C 148.505,315.679 148.172,304.679 148.5,293.5C 155.833,293.5 163.167,293.5 170.5,293.5C 170.5,294.833 170.5,296.167 170.5,297.5C 164.5,297.5 158.5,297.5 152.5,297.5 Z"/></g>
<g><path style="opacity:0.292" fill="#bfbfbf" d="M 290.5,294.5 C 289.5,294.5 288.5,294.5 287.5,294.5C 287.5,295.5 287.5,296.5 287.5,297.5C 286.566,296.432 286.232,295.099 286.5,293.5C 288.099,293.232 289.432,293.566 290.5,294.5 Z"/></g>
<g><path style="opacity:0.281" fill="#bbbbbb" d="M 309.5,294.5 C 310.568,293.566 311.901,293.232 313.5,293.5C 313.768,295.099 313.434,296.432 312.5,297.5C 312.5,296.5 312.5,295.5 312.5,294.5C 311.5,294.5 310.5,294.5 309.5,294.5 Z"/></g>
<g><path style="opacity:0.282" fill="#9a9a9a" d="M 398.5,297.5 C 404.014,296.833 409.681,296.167 415.5,295.5C 408.866,294.503 402.2,294.17 395.5,294.5C 395.5,305.167 395.5,315.833 395.5,326.5C 394.505,315.679 394.172,304.679 394.5,293.5C 401.833,293.5 409.167,293.5 416.5,293.5C 416.5,294.833 416.5,296.167 416.5,297.5C 410.5,297.5 404.5,297.5 398.5,297.5 Z"/></g>
<g><path style="opacity:0.784" fill="#5d5d5d" d="M 99.5,294.5 C 92.8333,294.5 86.1667,294.5 79.5,294.5C 79.5,305.167 79.5,315.833 79.5,326.5C 78.5054,315.679 78.1721,304.679 78.5,293.5C 85.6866,293.175 92.6866,293.509 99.5,294.5 Z"/></g>
<g><path style="opacity:1" fill="#161616" d="M 99.5,294.5 C 99.5,295.5 99.5,296.5 99.5,297.5C 93.8333,297.5 88.1667,297.5 82.5,297.5C 82.5,301.167 82.5,304.833 82.5,308.5C 86.7675,308.869 90.7675,309.869 94.5,311.5C 90.1667,311.5 85.8333,311.5 81.5,311.5C 81.5,316.5 81.5,321.5 81.5,326.5C 80.8333,326.5 80.1667,326.5 79.5,326.5C 79.5,315.833 79.5,305.167 79.5,294.5C 86.1667,294.5 92.8333,294.5 99.5,294.5 Z"/></g>
<g><path style="opacity:0.528" fill="#808080" d="M 117.5,294.5 C 116.5,294.5 115.5,294.5 114.5,294.5C 114.5,305.167 114.5,315.833 114.5,326.5C 113.505,315.679 113.172,304.679 113.5,293.5C 115.099,293.232 116.432,293.566 117.5,294.5 Z"/></g>
<g><path style="opacity:1" fill="#131313" d="M 117.5,294.5 C 117.5,304.167 117.5,313.833 117.5,323.5C 123.5,323.5 129.5,323.5 135.5,323.5C 135.5,324.5 135.5,325.5 135.5,326.5C 128.5,326.5 121.5,326.5 114.5,326.5C 114.5,315.833 114.5,305.167 114.5,294.5C 115.5,294.5 116.5,294.5 117.5,294.5 Z"/></g>
<g><path style="opacity:1" fill="#1b1b1b" d="M 152.5,297.5 C 152.5,301.167 152.5,304.833 152.5,308.5C 156.833,308.5 161.167,308.5 165.5,308.5C 165.5,309.833 165.5,311.167 165.5,312.5C 161.167,312.5 156.833,312.5 152.5,312.5C 152.5,316.167 152.5,319.833 152.5,323.5C 158.5,323.5 164.5,323.5 170.5,323.5C 170.5,324.5 170.5,325.5 170.5,326.5C 163.5,326.5 156.5,326.5 149.5,326.5C 149.5,315.833 149.5,305.167 149.5,294.5C 156.2,294.17 162.866,294.503 169.5,295.5C 163.681,296.167 158.014,296.833 152.5,297.5 Z"/></g>
<g><path style="opacity:0.268" fill="#b0b0b0" d="M 188.5,308.5 C 187.517,304.702 187.183,300.702 187.5,296.5C 193.206,296.829 198.872,296.495 204.5,295.5C 197.866,294.503 191.2,294.17 184.5,294.5C 184.5,305.167 184.5,315.833 184.5,326.5C 183.505,315.679 183.172,304.679 183.5,293.5C 190.833,293.5 198.167,293.5 205.5,293.5C 205.5,294.833 205.5,296.167 205.5,297.5C 199.833,297.5 194.167,297.5 188.5,297.5C 188.5,301.167 188.5,304.833 188.5,308.5 Z"/></g>
<g><path style="opacity:1" fill="#0a0a0a" d="M 188.5,308.5 C 192.5,308.5 196.5,308.5 200.5,308.5C 200.5,309.5 200.5,310.5 200.5,311.5C 196.167,311.5 191.833,311.5 187.5,311.5C 187.183,315.702 187.517,319.702 188.5,323.5C 194.167,323.5 199.833,323.5 205.5,323.5C 205.5,324.5 205.5,325.5 205.5,326.5C 198.5,326.5 191.5,326.5 184.5,326.5C 184.5,315.833 184.5,305.167 184.5,294.5C 191.2,294.17 197.866,294.503 204.5,295.5C 198.872,296.495 193.206,296.829 187.5,296.5C 187.183,300.702 187.517,304.702 188.5,308.5 Z"/></g>
<g><path style="opacity:1" fill="#171717" d="M 218.5,294.5 C 225.833,294.5 233.167,294.5 240.5,294.5C 240.82,297.898 240.487,301.232 239.5,304.5C 238.52,301.914 238.187,299.247 238.5,296.5C 235.941,296.198 233.607,296.532 231.5,297.5C 231.5,306.167 231.5,314.833 231.5,323.5C 233.167,323.5 234.833,323.5 236.5,323.5C 236.5,324.5 236.5,325.5 236.5,326.5C 231.833,326.5 227.167,326.5 222.5,326.5C 222.5,325.5 222.5,324.5 222.5,323.5C 224.167,323.5 225.833,323.5 227.5,323.5C 227.5,314.833 227.5,306.167 227.5,297.5C 225.393,296.532 223.059,296.198 220.5,296.5C 220.813,299.247 220.48,301.914 219.5,304.5C 218.513,301.232 218.18,297.898 218.5,294.5 Z"/></g>
<g><path style="opacity:1" fill="#343434" d="M 290.5,294.5 C 292.412,301.949 293.912,309.616 295,317.5C 298.333,297.5 301.667,297.5 305,317.5C 306.088,309.616 307.588,301.949 309.5,294.5C 310.5,294.5 311.5,294.5 312.5,294.5C 312.5,295.5 312.5,296.5 312.5,297.5C 311.327,306.873 309.827,316.206 308,325.5C 306.301,326.406 304.467,326.739 302.5,326.5C 301.83,322.149 300.996,317.816 300,313.5C 299.004,317.816 298.17,322.149 297.5,326.5C 295.533,326.739 293.699,326.406 292,325.5C 290.173,316.206 288.673,306.873 287.5,297.5C 287.5,296.5 287.5,295.5 287.5,294.5C 288.5,294.5 289.5,294.5 290.5,294.5 Z"/></g>
<g><path style="opacity:1" fill="#090909" d="M 337.5,323.5 C 339.167,323.5 340.833,323.5 342.5,323.5C 342.5,324.5 342.5,325.5 342.5,326.5C 337.5,326.5 332.5,326.5 327.5,326.5C 327.5,325.5 327.5,324.5 327.5,323.5C 329.167,323.5 330.833,323.5 332.5,323.5C 333.493,314.682 333.827,305.682 333.5,296.5C 331.712,296.785 330.045,296.452 328.5,295.5C 332.833,294.167 337.167,294.167 341.5,295.5C 339.955,296.452 338.288,296.785 336.5,296.5C 336.173,305.682 336.507,314.682 337.5,323.5 Z"/></g>
<g><path style="opacity:1" fill="#3d3d3d" d="M 375.5,295.5 C 376.79,297.987 377.79,297.653 378.5,294.5C 379.484,297.428 379.817,300.428 379.5,303.5C 376.891,303.17 375.224,301.67 374.5,299C 369.641,296.297 365.975,297.297 363.5,302C 363.759,303.261 364.426,304.261 365.5,305C 370.694,306.847 375.528,309.347 380,312.5C 382.946,323.895 378.446,328.728 366.5,327C 365.069,326.535 363.903,325.701 363,324.5C 361.951,326.107 360.451,326.773 358.5,326.5C 358.5,323.167 358.5,319.833 358.5,316.5C 359.978,316.238 361.311,316.571 362.5,317.5C 365.547,323.649 370.047,324.982 376,321.5C 378,319.5 378,317.5 376,315.5C 371.729,312.949 367.229,310.782 362.5,309C 359.197,305.205 358.697,301.038 361,296.5C 365.83,293.085 370.663,292.751 375.5,295.5 Z"/></g>
<g><path style="opacity:0.676" fill="#717171" d="M 379.5,303.5 C 379.817,300.428 379.484,297.428 378.5,294.5C 377.79,297.653 376.79,297.987 375.5,295.5C 376.779,294.032 378.446,293.365 380.5,293.5C 380.813,297.042 380.479,300.375 379.5,303.5 Z"/></g>
<g><path style="opacity:1" fill="#1b1b1b" d="M 398.5,297.5 C 398.5,301.167 398.5,304.833 398.5,308.5C 402.833,308.5 407.167,308.5 411.5,308.5C 411.5,309.833 411.5,311.167 411.5,312.5C 407.167,312.5 402.833,312.5 398.5,312.5C 398.5,316.167 398.5,319.833 398.5,323.5C 404.5,323.5 410.5,323.5 416.5,323.5C 416.5,324.5 416.5,325.5 416.5,326.5C 409.5,326.5 402.5,326.5 395.5,326.5C 395.5,315.833 395.5,305.167 395.5,294.5C 402.2,294.17 408.866,294.503 415.5,295.5C 409.681,296.167 404.014,296.833 398.5,297.5 Z"/></g>
<g><path style="opacity:0.392" fill="#888888" d="M 217.5,294.5 C 217.833,294.5 218.167,294.5 218.5,294.5C 218.18,297.898 218.513,301.232 219.5,304.5C 220.48,301.914 220.813,299.247 220.5,296.5C 223.059,296.198 225.393,296.532 227.5,297.5C 225.5,297.5 223.5,297.5 221.5,297.5C 221.5,300.167 221.5,302.833 221.5,305.5C 220.167,305.5 218.833,305.5 217.5,305.5C 217.5,301.833 217.5,298.167 217.5,294.5 Z"/></g>
<g><path style="opacity:0.339" fill="#999999" d="M 217.5,294.5 C 225.316,293.508 233.316,293.174 241.5,293.5C 241.5,297.5 241.5,301.5 241.5,305.5C 240.167,305.5 238.833,305.5 237.5,305.5C 237.5,302.833 237.5,300.167 237.5,297.5C 235.5,297.5 233.5,297.5 231.5,297.5C 233.607,296.532 235.941,296.198 238.5,296.5C 238.187,299.247 238.52,301.914 239.5,304.5C 240.487,301.232 240.82,297.898 240.5,294.5C 233.167,294.5 225.833,294.5 218.5,294.5C 218.167,294.5 217.833,294.5 217.5,294.5 Z"/></g>
<g><path style="opacity:0.226" fill="#bbbbbb" d="M 337.5,323.5 C 336.507,314.682 336.173,305.682 336.5,296.5C 338.288,296.785 339.955,296.452 341.5,295.5C 337.167,294.167 332.833,294.167 328.5,295.5C 330.045,296.452 331.712,296.785 333.5,296.5C 333.827,305.682 333.493,314.682 332.5,323.5C 332.5,314.833 332.5,306.167 332.5,297.5C 330.833,297.5 329.167,297.5 327.5,297.5C 327.5,296.167 327.5,294.833 327.5,293.5C 332.5,293.5 337.5,293.5 342.5,293.5C 342.5,294.833 342.5,296.167 342.5,297.5C 340.833,297.5 339.167,297.5 337.5,297.5C 337.5,306.167 337.5,314.833 337.5,323.5 Z"/></g>
<g><path style="opacity:0.828" fill="#444444" d="M 82.5,308.5 C 86.8333,308.5 91.1667,308.5 95.5,308.5C 95.7373,309.791 95.404,310.791 94.5,311.5C 90.7675,309.869 86.7675,308.869 82.5,308.5 Z"/></g>
<g><path style="opacity:0.595" fill="#919191" d="M 94.5,311.5 C 90.7016,312.483 86.7016,312.817 82.5,312.5C 82.8195,317.363 82.4861,322.03 81.5,326.5C 81.5,321.5 81.5,316.5 81.5,311.5C 85.8333,311.5 90.1667,311.5 94.5,311.5 Z"/></g>
<g><path style="opacity:0.083" fill="#e9e9e9" d="M 200.5,311.5 C 196.702,312.483 192.702,312.817 188.5,312.5C 188.5,316.167 188.5,319.833 188.5,323.5C 187.517,319.702 187.183,315.702 187.5,311.5C 191.833,311.5 196.167,311.5 200.5,311.5 Z"/></g>
<g><path style="opacity:0.273" fill="#bbbbbb" d="M 276.5,313.5 C 276.167,313.5 275.833,313.5 275.5,313.5C 267.757,312.87 260.424,313.537 253.5,315.5C 253.5,315.833 253.5,316.167 253.5,316.5C 252.566,315.432 252.232,314.099 252.5,312.5C 260.684,312.174 268.684,312.508 276.5,313.5 Z"/></g>
<g><path style="opacity:1" fill="#000000" d="M 275.5,313.5 C 268.576,315.463 261.243,316.13 253.5,315.5C 260.424,313.537 267.757,312.87 275.5,313.5 Z"/></g>
<g><path style="opacity:0.599" fill="#646464" d="M 275.5,313.5 C 275.833,313.5 276.167,313.5 276.5,313.5C 276.5,314.5 276.5,315.5 276.5,316.5C 268.833,316.5 261.167,316.5 253.5,316.5C 253.5,316.167 253.5,315.833 253.5,315.5C 261.243,316.13 268.576,315.463 275.5,313.5 Z"/></g>
</svg>
